REM DIRINDEX 1\2,1\3,1\4,1\5
REM DIRNAME "folder01","folder02","folder03","folder04","folder05"
TITLE ""
FILE "1Q_j_2128-2141.mp3" MP3
  TRACK 01 AUDIO
    TITLE "3:cjc172_0084"
    INDEX 01 00:00:00
  TRACK 02 AUDIO
    TITLE "0:"
    INDEX 01 00:01:27
  TRACK 03 AUDIO
    TITLE "4:cjc172_0085"
    INDEX 01 00:01:39
  TRACK 04 AUDIO
    TITLE "0:"
    INDEX 01 00:03:40
  TRACK 05 AUDIO
    TITLE "5:cjc172_0086"
    INDEX 01 00:03:46
  TRACK 06 AUDIO
    TITLE "0:"
    INDEX 01 00:10:40
  TRACK 07 AUDIO
    TITLE "3:cjc172_0087"
    INDEX 01 00:11:12
  TRACK 08 AUDIO
    TITLE "0:"
    INDEX 01 00:12:57
  TRACK 09 AUDIO
    TITLE "4:cjc172_0088"
    INDEX 01 00:12:62
  TRACK 10 AUDIO
    TITLE "0:"
    INDEX 01 00:14:48
  TRACK 11 AUDIO
    TITLE "5:cjc172_0089"
    INDEX 01 00:14:54
  TRACK 12 AUDIO
    TITLE "0:"
    INDEX 01 00:20:74
  TRACK 13 AUDIO
    TITLE "3:cjc172_0090"
    INDEX 01 00:21:46
  TRACK 14 AUDIO
    TITLE "0:"
    INDEX 01 00:22:71
  TRACK 15 AUDIO
    TITLE "4:cjc172_0091"
    INDEX 01 00:23:07
  TRACK 16 AUDIO
    TITLE "0:"
    INDEX 01 00:24:75
  TRACK 17 AUDIO
    TITLE "5:cjc172_0092"
    INDEX 01 00:25:08
  TRACK 18 AUDIO
    TITLE "0:"
    INDEX 01 00:32:02
  TRACK 19 AUDIO
    TITLE "3:cjc172_0093"
    INDEX 01 00:32:48
  TRACK 20 AUDIO
    TITLE "0:"
    INDEX 01 00:33:63
  TRACK 21 AUDIO
    TITLE "4:cjc172_0094"
    INDEX 01 00:33:72
  TRACK 22 AUDIO
    TITLE "0:"
    INDEX 01 00:35:73
  TRACK 23 AUDIO
    TITLE "5:cjc172_0095"
    INDEX 01 00:36:06
  TRACK 24 AUDIO
    TITLE "0:"
    INDEX 01 00:40:37
  TRACK 25 AUDIO
    TITLE "3:cjc172_0096"
    INDEX 01 00:41:09
  TRACK 26 AUDIO
    TITLE "0:"
    INDEX 01 00:42:38
  TRACK 27 AUDIO
    TITLE "4:cjc172_0097"
    INDEX 01 00:42:46
  TRACK 28 AUDIO
    TITLE "0:"
    INDEX 01 00:44:27
  TRACK 29 AUDIO
    TITLE "5:cjc172_0098"
    INDEX 01 00:44:35
  TRACK 30 AUDIO
    TITLE "0:"
    INDEX 01 00:51:21
  TRACK 31 AUDIO
    TITLE "3:cjc172_0099"
    INDEX 01 00:51:68
  TRACK 32 AUDIO
    TITLE "0:"
    INDEX 01 00:53:22
  TRACK 33 AUDIO
    TITLE "4:cjc172_0100"
    INDEX 01 00:53:34
  TRACK 34 AUDIO
    TITLE "0:"
    INDEX 01 00:55:21
  TRACK 35 AUDIO
    TITLE "5:cjc172_0101"
    INDEX 01 00:55:29
  TRACK 36 AUDIO
    TITLE "0:"
    INDEX 01 01:03:17
  TRACK 37 AUDIO
    TITLE "3:cjc172_0102"
    INDEX 01 01:03:64
  TRACK 38 AUDIO
    TITLE "0:"
    INDEX 01 01:05:14
  TRACK 39 AUDIO
    TITLE "4:cjc172_0103"
    INDEX 01 01:05:22
  TRACK 40 AUDIO
    TITLE "0:"
    INDEX 01 01:07:44
  TRACK 41 AUDIO
    TITLE "5:cjc172_0104"
    INDEX 01 01:07:50
  TRACK 42 AUDIO
    TITLE "0:"
    INDEX 01 01:14:46
  TRACK 43 AUDIO
    TITLE "3:cjc172_0105"
    INDEX 01 01:15:18
  TRACK 44 AUDIO
    TITLE "0:"
    INDEX 01 01:16:25
  TRACK 45 AUDIO
    TITLE "4:cjc172_0106"
    INDEX 01 01:16:35
  TRACK 46 AUDIO
    TITLE "0:"
    INDEX 01 01:17:60
  TRACK 47 AUDIO
    TITLE "5:cjc172_0107"
    INDEX 01 01:17:66
  TRACK 48 AUDIO
    TITLE "0:"
    INDEX 01 01:23:70
  TRACK 49 AUDIO
    TITLE "3:cjc172_0108"
    INDEX 01 01:24:40
  TRACK 50 AUDIO
    TITLE "0:"
    INDEX 01 01:25:58
  TRACK 51 AUDIO
    TITLE "4:cjc172_0109"
    INDEX 01 01:25:67
  TRACK 52 AUDIO
    TITLE "0:"
    INDEX 01 01:27:15
  TRACK 53 AUDIO
    TITLE "5:cjc172_0110"
    INDEX 01 01:27:23
  TRACK 54 AUDIO
    TITLE "0:"
    INDEX 01 01:31:66
  TRACK 55 AUDIO
    TITLE "3:cjc172_0111"
    INDEX 01 01:32:34
  TRACK 56 AUDIO
    TITLE "0:"
    INDEX 01 01:33:43
  TRACK 57 AUDIO
    TITLE "4:cjc172_0112"
    INDEX 01 01:33:53
  TRACK 58 AUDIO
    TITLE "0:"
    INDEX 01 01:35:56
  TRACK 59 AUDIO
    TITLE "5:cjc172_0113"
    INDEX 01 01:35:64
  TRACK 60 AUDIO
    TITLE "0:"
    INDEX 01 01:42:36
  TRACK 61 AUDIO
    TITLE "3:cjc172_0114"
    INDEX 01 01:43:08
  TRACK 62 AUDIO
    TITLE "0:"
    INDEX 01 01:44:22
  TRACK 63 AUDIO
    TITLE "4:cjc172_0115"
    INDEX 01 01:44:29
  TRACK 64 AUDIO
    TITLE "0:"
    INDEX 01 01:46:05
  TRACK 65 AUDIO
    TITLE "5:cjc172_0116"
    INDEX 01 01:46:11
  TRACK 66 AUDIO
    TITLE "0:"
    INDEX 01 01:51:06
  TRACK 67 AUDIO
    TITLE "3:cjc172_0117"
    INDEX 01 01:51:51
  TRACK 68 AUDIO
    TITLE "0:"
    INDEX 01 01:53:11
  TRACK 69 AUDIO
    TITLE "4:cjc172_0118"
    INDEX 01 01:53:21
  TRACK 70 AUDIO
    TITLE "0:"
    INDEX 01 01:55:37
  TRACK 71 AUDIO
    TITLE "5:cjc172_0119"
    INDEX 01 01:55:45
  TRACK 72 AUDIO
    TITLE "0:"
    INDEX 01 02:02:41
  TRACK 73 AUDIO
    TITLE "3:cjc172_0120"
    INDEX 01 02:03:11
  TRACK 74 AUDIO
    TITLE "0:"
    INDEX 01 02:04:32
  TRACK 75 AUDIO
    TITLE "4:cjc172_0121"
    INDEX 01 02:04:42
  TRACK 76 AUDIO
    TITLE "0:"
    INDEX 01 02:07:09
  TRACK 77 AUDIO
    TITLE "5:cjc172_0122"
    INDEX 01 02:07:17
  TRACK 78 AUDIO
    TITLE "0:"
    INDEX 01 02:12:20
  TRACK 79 AUDIO
    TITLE "3:cjc172_0123"
    INDEX 01 02:12:65
  TRACK 80 AUDIO
    TITLE "0:"
    INDEX 01 02:14:15
  TRACK 81 AUDIO
    TITLE "4:cjc172_0124"
    INDEX 01 02:14:23
  TRACK 82 AUDIO
    TITLE "0:"
    INDEX 01 02:16:18
  TRACK 83 AUDIO
    TITLE "5:cjc172_0125"
    INDEX 01 02:16:25
  TRACK 84 AUDIO
    TITLE "0:"
    INDEX 01 02:23:24
